<?xml version="1.0" encoding="utf-8"?>
<!-- Generator: Adobe Illustrator 16.0.0, SVG Export Plug-In . SVG Version: 6.00 Build 0)  -->
<!DOCTYPE svg PUBLIC "-//W3C//DTD SVG 1.1//EN" "http://www.w3.org/Graphics/SVG/1.1/DTD/svg11.dtd">
<svg version="1.1" id="logo" xmlns="http://www.w3.org/2000/svg" xmlns:xlink="http://www.w3.org/1999/xlink" x="0px" y="0px"
	 width="511px" height="511px" viewBox="0 0 511 511" enable-background="new 0 0 511 511" xml:space="preserve">
<g>
	<path fill="#7BC8A1" d="M199.071,337l123.852-0.997L308.071,292l40.993-155l56.39-25.688l93.648,66.947
		C466.362,74.908,369.684,0,255.5,0C114.391,0,0,114.391,0,255.5C0,396.608,114.391,511,255.5,511
		c26.494,0,52.045-4.033,76.075-11.519l-169.518-117.01L199.071,337z"/>
	<linearGradient id="SVGID_1_" gradientUnits="userSpaceOnUse" x1="231.5298" y1="208.9883" x2="514.6255" y2="412.9914">
		<stop  offset="0" style="stop-color:#42785F"/>
		<stop  offset="0.1679" style="stop-color:#599577"/>
		<stop  offset="0.3244" style="stop-color:#6BAE8C"/>
		<stop  offset="0.463" style="stop-color:#76BF9A"/>
		<stop  offset="0.5693" style="stop-color:#7BC8A1"/>
	</linearGradient>
	<path fill="url(#SVGID_1_)" d="M511,255.5c0-26.925-4.177-52.871-11.897-77.241l-93.648-66.947L353.064,137l-52.993,153
		l22.852,46.003L199.071,337l-37.014,45.471l169.518,117.01C435.53,467.102,511,370.114,511,255.5z"/>
</g>
<linearGradient id="shadow02_1_" gradientUnits="userSpaceOnUse" x1="175.2861" y1="261.8447" x2="301.8375" y2="353.0396">
	<stop  offset="0.2588" style="stop-color:#579B79"/>
	<stop  offset="0.7586" style="stop-color:#7BC8A1"/>
</linearGradient>
<polygon id="shadow02" fill="url(#shadow02_1_)" points="147.071,301 199.071,338 314.064,336.074 301.071,293 "/>
<g id="cart">
	<path fill="#1B2731" d="M295.463,303.655c-46.77,0.016-93.54,0.019-140.31,0.006c-6.2-0.001-9.179-2.173-11.093-8.077
		c-3.013-9.292-5.969-18.604-8.949-27.906c-5.349-16.685-10.696-33.369-16.045-50.053c-5.003-15.611-10.054-31.208-14.945-46.854
		c-0.573-1.833-0.749-4.058-0.289-5.896c1.281-5.131,5.02-7.415,11.311-7.415c72.097-0.002,144.193-0.014,216.29,0.063
		c2.071,0.002,2.771-0.747,3.355-2.485c2.497-7.421,5.228-14.767,7.625-22.22c1.346-4.185,4.137-6.478,8.079-7.973
		c8.452-3.205,16.828-6.607,25.247-9.898c6.166-2.41,12.318-4.86,18.538-7.124c4.293-1.562,8.608-0.092,11.177,3.486
		c2.604,3.625,2.786,7.943-0.367,11.356c-1.865,2.02-4.617,3.455-7.229,4.51c-12.125,4.899-24.35,9.55-36.504,14.376
		c-0.84,0.333-1.712,1.255-2.037,2.107c-1.585,4.146-3.002,8.357-4.455,12.552c-4.149,11.977-8.285,23.958-12.431,35.936
		c-5.071,14.652-10.135,29.307-15.226,43.952c-3.949,11.361-7.95,22.705-11.9,34.066c-2.035,5.852-4.008,11.726-5.744,16.814
		c1.846,2.505,3.882,4.317,4.73,6.576c4.855,12.925,9.44,25.951,14.094,38.951c2.433,6.795-1.116,11.772-8.388,11.817
		c-1.901,0.012-3.804,0.002-6.43,0.002c5.945,7.115,8.285,14.762,7.254,23.208c-1.039,8.517-5.22,15.44-12.261,20.321
		c-9.097,6.306-22.06,8.191-32.754,0.189c-16.063-12.016-16.701-27.188-6.211-43.521c-20.916,0-41.727,0-63.096,0
		c5.553,6.842,7.994,14.264,7.093,22.595c-0.919,8.494-4.968,15.316-11.81,20.341c-9.639,7.078-22.742,7.773-33.613,0.532
		c-5.232-3.484-8.949-8.379-10.98-14.384c-3.564-10.541-1.427-20.14,5.244-28.723c-0.271-0.3-0.321-0.405-0.373-0.406
		c-2.824-0.063-5.65-0.062-8.472-0.184c-4.295-0.184-7.336-2.991-7.857-7.145c-0.485-3.862,1.964-7.563,5.909-8.61
		c1.378-0.366,2.885-0.332,4.332-0.333c50.007-0.016,100.014-0.013,150.02-0.022c1.078,0,2.156-0.111,3.574-0.189
		c-3.054-8.49-5.966-16.589-8.865-24.65C298.672,303.47,297.067,303.654,295.463,303.655z M324.003,176.891
		c-17.942,0-35.887,0.038-53.829-0.051c-2.31-0.011-3.053,0.592-2.979,2.964c0.176,5.571,0.105,11.153,0.027,16.729
		c-0.024,1.788,0.379,2.568,2.41,2.558c15.922-0.08,31.845-0.03,47.768-0.09c0.787-0.003,2.073-0.476,2.283-1.042
		c2.516-6.788,4.871-13.635,7.48-21.067C325.73,176.891,324.867,176.891,324.003,176.891z M133.24,197.915
		c0.203,0.597,1.667,1.079,2.548,1.083c13.825,0.067,27.65,0.047,41.477,0.047c6.11,0,6.11,0,6.11-6.04
		c0-4.689-0.033-9.379,0.02-14.068c0.016-1.391-0.354-2.068-1.896-2.065c-17.868,0.038-35.736,0.03-53.604,0.045
		c-0.306,0-0.611,0.139-1.313,0.309C128.822,184.294,130.935,191.137,133.24,197.915z M247.588,218.606
		c-0.771-0.06-1.467-0.162-2.162-0.162c-13.346-0.01-26.692,0.042-40.038-0.059c-2.19-0.017-2.719,0.663-2.681,2.754
		c0.126,6.792,0.063,13.588,0.036,20.382c-0.005,1.341,0.053,2.309,1.879,2.3c14.074-0.065,28.148-0.049,42.222-0.065
		c0.149,0,0.299-0.087,0.744-0.227C247.588,235.239,247.588,227.019,247.588,218.606z M267.22,224.211
		c0.001,5.823,0.042,11.646-0.024,17.468c-0.018,1.555,0.467,2.148,2.071,2.141c10.918-0.048,21.836-0.006,32.753-0.071
		c0.738-0.004,1.943-0.464,2.139-1c2.885-7.942,5.637-15.933,8.506-24.159c-15.27,0-30.188,0-45.444,0
		C267.22,220.534,267.22,222.373,267.22,224.211z M143.77,231.067c1.141,3.612,2.327,7.21,3.444,10.829
		c0.4,1.301,0.988,1.95,2.54,1.938c10.502-0.079,21.005-0.065,31.507-0.015c1.541,0.007,2.155-0.429,2.141-2.053
		c-0.064-7.108-0.052-14.218-0.007-21.327c0.009-1.394-0.348-2.032-1.894-2.026c-13.491,0.046-26.982,0.028-40.474,0.036
		c-0.229,0-0.46,0.096-1.129,0.244C141.228,222.942,142.488,227.008,143.77,231.067z M247.556,177.009
		c-0.924-0.043-1.71-0.112-2.496-0.112c-13.104-0.007-26.21,0.044-39.314-0.052c-2.25-0.016-3.125,0.48-3.049,2.918
		c0.178,5.738,0.082,11.485,0.046,17.229c-0.008,1.356,0.301,2.082,1.881,2.076c13.994-0.049,27.989-0.037,41.983-0.051
		c0.23,0,0.461-0.097,0.949-0.206C247.556,191.521,247.556,184.355,247.556,177.009z M202.754,278.665
		c0,5.648,0.001,5.648,5.531,5.649c12.038,0,24.076,0.001,36.115,0.002c0.963,0,1.926,0,3.095,0c0-7.047,0-13.938,0-20.982
		c-14.829,0-29.642,0-44.742,0C202.753,268.535,202.753,273.6,202.754,278.665z M267.253,263.304c0,2.22,0,4.364,0,6.508
		c0,4.043,0.063,8.088-0.031,12.129c-0.04,1.73,0.43,2.442,2.306,2.411c6.144-0.102,12.29-0.006,18.436-0.083
		c0.743-0.009,1.952-0.436,2.146-0.963c2.413-6.573,4.678-13.201,7.046-20.001C287.14,263.304,277.392,263.304,267.253,263.304z
		 M154.138,263.3c1.403,4.407,2.741,8.619,4.088,12.829c0.417,1.304,0.885,2.593,1.283,3.903c1.538,5.046,0.5,4.225,5.835,4.272
		c5.173,0.046,10.348-0.049,15.52,0.042c1.805,0.031,2.595-0.391,2.556-2.404c-0.118-6.126-0.043-12.256-0.043-18.642
		C173.495,263.3,163.979,263.3,154.138,263.3z M291.823,376.92c7.2,0.015,13.12-5.9,13.104-13.091
		c-0.017-7.042-5.909-12.856-13.022-12.849c-7.247,0.007-12.879,5.642-12.89,12.897C279.003,371.073,284.731,376.907,291.823,376.92
		z M171.723,363.851c-0.034,7.269,5.795,13.106,13.04,13.062c7.085-0.045,12.883-5.93,12.854-13.049
		c-0.027-7.168-5.787-12.898-12.959-12.894C177.434,350.974,171.758,356.627,171.723,363.851z"/>
	<path fill-rule="evenodd" clip-rule="evenodd" fill="#1B2731" d="M274.159,363.85c-0.015,9.894,7.86,17.913,17.609,17.931
		c9.899,0.021,18.036-8.112,18.014-17.997c-0.024-9.681-8.124-17.674-17.902-17.664C281.916,346.129,274.174,353.875,274.159,363.85
		z"/>
	<path fill-rule="evenodd" clip-rule="evenodd" fill="#1B2731" d="M184.653,345.41c-10.32,0.007-18.43,8.082-18.479,18.401
		c-0.05,10.384,8.278,18.725,18.628,18.659c10.12-0.063,18.403-8.471,18.363-18.641C203.127,353.59,194.898,345.404,184.653,345.41z
		"/>
</g>
</svg>
